ENGLISH SUBTITLES HARDCODED FOR NONE ENGLISH PARTS

Format : AVI
Format/Info : Audio Video Interleave
File size : 700 MiB
Duration : 1h 39mn
Overall bit rate : 981 Kbps
Writing application : MEncoder SVN-r29352(20090610-gcc4.3.3)
Writing library : MPlayer

Video
ID : 0
Format : MPEG-4 Visual
Format profile : AdvancedSimple@L5
Format settings, BVOP : Yes
Format settings, QPel : No
Format settings, GMC : No warppoints
Format settings, Matrix : Default (H.263)
Codec ID : XVID
Codec ID/Hint : XviD
Duration : 1h 39mn
Bit rate : 840 Kbps
Width : 640 pixels
Height : 360 pixels
Display aspect ratio : 16:9
Frame rate : 25.000 fps
Resolution : 24 bits
Colorimetry : 4:2:0
Scan type : Progressive
Bits/(Pixel*Frame) : 0.146
Stream size : 599 MiB (86%)
Writing library : XviD 1.2.1 (UTC 2008-12-04)

Audio
ID : 1
Format : MPEG Audio
Format version : Version 1
Format profile : Layer 3
Codec ID : 55
Codec ID/Hint : MP3
Duration : 1h 39mn
Bit rate mode : Constant
Bit rate : 128 Kbps
Channel(s) : 2 channels
Sampling rate : 44.1 KHz
Resolution : 16 bits
Video delay : 80ms
Stream size : 91.3 MiB (13%)
Alignment : Aligned on interleaves
Interleave, duration : 26 ms (0.65 video frame)
Interleave, preload duration : 522 ms
Writing library : LAME3.98

In his three-part biographical epic Carlos, Olivier Assayas seems to have approached his subject—Ilich Ramírez Sánchez, the international terrorist known throughout the 1970s and '80s as Carlos the Jackal—in a manner similar to the way Steven Soderbergh approached another leftist-revolutionary icon, Che Guevara, in his two-part Che. Like Soderbergh, Assayas seems to have decided that the only honest way to approach his enigmatic central figure is to focus obsessively on historical verisimilitude, stand back, and allow us to draw our own conclusions.
 
http://www.imdb.com/title/tt1321865/

NOTE-> Audio is mixed French,Spanish and English

screens
 
http://img832.imageshack.us/img832/1361/carlos1xvidviceavisnaps.jpg 
http://img209.imageshack.us/img209/1361/carlos1xvidviceavisnaps.jpg 
http://img830.imageshack.us/img830/1361/carlos1xvidviceavisnaps.jpg 
http://img576.imageshack.us/img576/1361/carlos1xvidviceavisnaps.jpg
 
http://img233.imageshack.us/img233/9225/carlos1xvidviceavithumb.jpg